<svg xmlns="http://www.w3.org/2000/svg" version="1.1" xmlns:xlink="http://www.w3.org/1999/xlink" xmlns:svgjs="http://svgjs.com/svgjs" width="1440" height="560" preserveAspectRatio="none" viewBox="0 0 1440 560"><g mask="url(&quot;#SvgjsMask3147&quot;)" fill="none"><g mask="url(&quot;#SvgjsMask3149&quot;)"><path d="M112 272L144 240L176 240L208 240M368 240L400 208L432 208L464 208L496 208L528 208M208 272L240 272L272 272L304 272M-16 272L16 272L48 272L80 272L112 272L144 272L176 272L208 272L240 240L272 240L304 240L336 240L368 240L400 240" stroke="url(#SvgjsLinearGradient3148)" stroke-width="5.33"></path><path d="M392 240 a8 8 0 1 0 16 0 a8 8 0 1 0 -16 0zM200 240 a8 8 0 1 0 16 0 a8 8 0 1 0 -16 0zM520 208 a8 8 0 1 0 16 0 a8 8 0 1 0 -16 0zM296 272 a8 8 0 1 0 16 0 a8 8 0 1 0 -16 0z" fill="url(#SvgjsLinearGradient3148)"></path><path d="M720 304L752 304M752 272L784 240M400 304L432 272L464 240L496 240M432 304L464 336L496 336L528 336L560 336L592 336L624 336M368 272L400 272M560 304L592 272L624 272M976 272L1008 304L1040 304L1072 304L1104 304M464 304L496 272L528 272M-16 304L16 304L48 304L80 304L112 304L144 304L176 304L208 304L240 304L272 304L304 304L336 272L368 272L400 304L432 304L464 304L496 304L528 304L560 304L592 304L624 304L656 304L688 304L720 304L752 272L784 272L816 272L848 272L880 272L912 272L944 272L976 272L1008 272L1040 240" stroke="url(#SvgjsLinearGradient3148)" stroke-width="5.33"></path><path d="M1032 240 a8 8 0 1 0 16 0 a8 8 0 1 0 -16 0zM744 304 a8 8 0 1 0 16 0 a8 8 0 1 0 -16 0zM776 240 a8 8 0 1 0 16 0 a8 8 0 1 0 -16 0zM488 240 a8 8 0 1 0 16 0 a8 8 0 1 0 -16 0zM616 336 a8 8 0 1 0 16 0 a8 8 0 1 0 -16 0zM392 272 a8 8 0 1 0 16 0 a8 8 0 1 0 -16 0zM616 272 a8 8 0 1 0 16 0 a8 8 0 1 0 -16 0zM1096 304 a8 8 0 1 0 16 0 a8 8 0 1 0 -16 0zM520 272 a8 8 0 1 0 16 0 a8 8 0 1 0 -16 0z" fill="url(#SvgjsLinearGradient3148)"></path><path d="M80 208L112 240M48 240L80 240M-16 240L16 240L48 240L80 208L112 208L144 208L176 208L208 208L240 208" stroke="url(#SvgjsLinearGradient3148)" stroke-width="5.33"></path><path d="M232 208 a8 8 0 1 0 16 0 a8 8 0 1 0 -16 0zM104 240 a8 8 0 1 0 16 0 a8 8 0 1 0 -16 0zM72 240 a8 8 0 1 0 16 0 a8 8 0 1 0 -16 0z" fill="url(#SvgjsLinearGradient3148)"></path><path d="M528 432L560 400L592 400L624 400L656 400M368 400L400 368L432 368M496 432L528 464M272 336L304 336L336 368M432 400L464 400M-16 336L16 336L48 336L80 336L112 336L144 336L176 336L208 336L240 336L272 336L304 368L336 400L368 400L400 400L432 400L464 432L496 432L528 432L560 432L592 432" stroke="url(#SvgjsLinearGradient3148)" stroke-width="5.33"></path><path d="M584 432 a8 8 0 1 0 16 0 a8 8 0 1 0 -16 0zM648 400 a8 8 0 1 0 16 0 a8 8 0 1 0 -16 0zM424 368 a8 8 0 1 0 16 0 a8 8 0 1 0 -16 0zM520 464 a8 8 0 1 0 16 0 a8 8 0 1 0 -16 0zM328 368 a8 8 0 1 0 16 0 a8 8 0 1 0 -16 0zM456 400 a8 8 0 1 0 16 0 a8 8 0 1 0 -16 0z" fill="url(#SvgjsLinearGradient3148)"></path><path d="M400 176L432 144L464 144L496 144L528 144M784 176L816 208L848 208L880 240L912 240L944 240L976 240L1008 240L1040 208L1072 176M560 176L592 144L624 144L656 144L688 144L720 144L752 144L784 144L816 144M848 176L880 176L912 176L944 176L976 176L1008 176L1040 176M272 176L304 208L336 208L368 208M624 176L656 208L688 208L720 208M368 176L400 144M-16 208L16 208L48 208L80 176L112 176L144 176L176 176L208 176L240 176L272 176L304 176L336 176L368 176L400 176L432 176L464 176L496 176L528 176L560 176L592 176L624 176L656 176L688 176L720 176L752 176L784 176L816 176L848 176L880 208L912 208L944 208L976 208" stroke="url(#SvgjsLinearGradient3148)" stroke-width="5.33"></path><path d="M968 208 a8 8 0 1 0 16 0 a8 8 0 1 0 -16 0zM520 144 a8 8 0 1 0 16 0 a8 8 0 1 0 -16 0zM1064 176 a8 8 0 1 0 16 0 a8 8 0 1 0 -16 0zM808 144 a8 8 0 1 0 16 0 a8 8 0 1 0 -16 0zM1032 176 a8 8 0 1 0 16 0 a8 8 0 1 0 -16 0zM360 208 a8 8 0 1 0 16 0 a8 8 0 1 0 -16 0zM712 208 a8 8 0 1 0 16 0 a8 8 0 1 0 -16 0zM392 144 a8 8 0 1 0 16 0 a8 8 0 1 0 -16 0z" fill="url(#SvgjsLinearGradient3148)"></path><path d="M336 432L368 464M240 368L272 400M208 368L240 400M-16 368L16 368L48 368L80 368L112 368L144 368L176 368L208 368L240 368L272 368L304 400L336 432L368 432L400 432" stroke="url(#SvgjsLinearGradient3148)" stroke-width="5.33"></path><path d="M392 432 a8 8 0 1 0 16 0 a8 8 0 1 0 -16 0zM360 464 a8 8 0 1 0 16 0 a8 8 0 1 0 -16 0zM264 400 a8 8 0 1 0 16 0 a8 8 0 1 0 -16 0zM232 400 a8 8 0 1 0 16 0 a8 8 0 1 0 -16 0z" fill="url(#SvgjsLinearGradient3148)"></path><path d="M752 112L784 80M1040 144L1072 112M720 112L752 80M144 144L176 112L208 112L240 112L272 112L304 112L336 80M432 112L464 80L496 80L528 80L560 80L592 80L624 80L656 80L688 80L720 80M304 144L336 144L368 144M944 144L976 112L1008 112L1040 112L1072 80L1104 80M80 144L112 112L144 112L176 80L208 80L240 80L272 80L304 80M816 112L848 80L880 80L912 80M-16 176L16 176L48 176L80 144L112 144L144 144L176 144L208 144L240 144L272 144L304 144L336 112L368 112L400 112L432 112L464 112L496 112L528 112L560 112L592 112L624 112L656 112L688 112L720 112L752 112L784 112L816 112L848 112L880 144L912 144L944 144L976 144L1008 144L1040 144L1072 144L1104 144" stroke="url(#SvgjsLinearGradient3148)" stroke-width="5.33"></path><path d="M1096 144 a8 8 0 1 0 16 0 a8 8 0 1 0 -16 0zM776 80 a8 8 0 1 0 16 0 a8 8 0 1 0 -16 0zM1064 112 a8 8 0 1 0 16 0 a8 8 0 1 0 -16 0zM744 80 a8 8 0 1 0 16 0 a8 8 0 1 0 -16 0zM328 80 a8 8 0 1 0 16 0 a8 8 0 1 0 -16 0zM712 80 a8 8 0 1 0 16 0 a8 8 0 1 0 -16 0zM360 144 a8 8 0 1 0 16 0 a8 8 0 1 0 -16 0zM1096 80 a8 8 0 1 0 16 0 a8 8 0 1 0 -16 0zM296 80 a8 8 0 1 0 16 0 a8 8 0 1 0 -16 0zM904 80 a8 8 0 1 0 16 0 a8 8 0 1 0 -16 0z" fill="url(#SvgjsLinearGradient3148)"></path><path d="M16 400L48 432L80 432L112 432L144 432M208 432L240 464L272 464M-16 400L16 400L48 400L80 400L112 400L144 400L176 400L208 432L240 432L272 432" stroke="url(#SvgjsLinearGradient3148)" stroke-width="5.33"></path><path d="M264 432 a8 8 0 1 0 16 0 a8 8 0 1 0 -16 0zM136 432 a8 8 0 1 0 16 0 a8 8 0 1 0 -16 0zM264 464 a8 8 0 1 0 16 0 a8 8 0 1 0 -16 0z" fill="url(#SvgjsLinearGradient3148)"></path><path d="M-16 144L16 144" stroke="url(#SvgjsLinearGradient3148)" stroke-width="5.33"></path><path d="M8 144 a8 8 0 1 0 16 0 a8 8 0 1 0 -16 0z" fill="url(#SvgjsLinearGradient3148)"></path></g></g><defs><mask id="SvgjsMask3147"><rect width="1440" height="560" fill="#ffffff"></rect></mask><linearGradient x1="1166.4" y1="280" x2="0" y2="280" gradientUnits="userSpaceOnUse" id="SvgjsLinearGradient3148"><stop stop-color="rgba(255, 0, 42, 1)" offset="0"></stop><stop stop-color="rgba(58, 124, 195, 1)" offset="0.49"></stop></linearGradient><mask id="SvgjsMask3149"><rect width="1440" height="560" fill="white"></rect><path d="M396 240 a4 4 0 1 0 8 0 a4 4 0 1 0 -8 0zM204 240 a4 4 0 1 0 8 0 a4 4 0 1 0 -8 0zM524 208 a4 4 0 1 0 8 0 a4 4 0 1 0 -8 0zM300 272 a4 4 0 1 0 8 0 a4 4 0 1 0 -8 0z" fill="black"></path><path d="M1036 240 a4 4 0 1 0 8 0 a4 4 0 1 0 -8 0zM748 304 a4 4 0 1 0 8 0 a4 4 0 1 0 -8 0zM780 240 a4 4 0 1 0 8 0 a4 4 0 1 0 -8 0zM492 240 a4 4 0 1 0 8 0 a4 4 0 1 0 -8 0zM620 336 a4 4 0 1 0 8 0 a4 4 0 1 0 -8 0zM396 272 a4 4 0 1 0 8 0 a4 4 0 1 0 -8 0zM620 272 a4 4 0 1 0 8 0 a4 4 0 1 0 -8 0zM1100 304 a4 4 0 1 0 8 0 a4 4 0 1 0 -8 0zM524 272 a4 4 0 1 0 8 0 a4 4 0 1 0 -8 0z" fill="black"></path><path d="M236 208 a4 4 0 1 0 8 0 a4 4 0 1 0 -8 0zM108 240 a4 4 0 1 0 8 0 a4 4 0 1 0 -8 0zM76 240 a4 4 0 1 0 8 0 a4 4 0 1 0 -8 0z" fill="black"></path><path d="M588 432 a4 4 0 1 0 8 0 a4 4 0 1 0 -8 0zM652 400 a4 4 0 1 0 8 0 a4 4 0 1 0 -8 0zM428 368 a4 4 0 1 0 8 0 a4 4 0 1 0 -8 0zM524 464 a4 4 0 1 0 8 0 a4 4 0 1 0 -8 0zM332 368 a4 4 0 1 0 8 0 a4 4 0 1 0 -8 0zM460 400 a4 4 0 1 0 8 0 a4 4 0 1 0 -8 0z" fill="black"></path><path d="M972 208 a4 4 0 1 0 8 0 a4 4 0 1 0 -8 0zM524 144 a4 4 0 1 0 8 0 a4 4 0 1 0 -8 0zM1068 176 a4 4 0 1 0 8 0 a4 4 0 1 0 -8 0zM812 144 a4 4 0 1 0 8 0 a4 4 0 1 0 -8 0zM1036 176 a4 4 0 1 0 8 0 a4 4 0 1 0 -8 0zM364 208 a4 4 0 1 0 8 0 a4 4 0 1 0 -8 0zM716 208 a4 4 0 1 0 8 0 a4 4 0 1 0 -8 0zM396 144 a4 4 0 1 0 8 0 a4 4 0 1 0 -8 0z" fill="black"></path><path d="M396 432 a4 4 0 1 0 8 0 a4 4 0 1 0 -8 0zM364 464 a4 4 0 1 0 8 0 a4 4 0 1 0 -8 0zM268 400 a4 4 0 1 0 8 0 a4 4 0 1 0 -8 0zM236 400 a4 4 0 1 0 8 0 a4 4 0 1 0 -8 0z" fill="black"></path><path d="M1100 144 a4 4 0 1 0 8 0 a4 4 0 1 0 -8 0zM780 80 a4 4 0 1 0 8 0 a4 4 0 1 0 -8 0zM1068 112 a4 4 0 1 0 8 0 a4 4 0 1 0 -8 0zM748 80 a4 4 0 1 0 8 0 a4 4 0 1 0 -8 0zM332 80 a4 4 0 1 0 8 0 a4 4 0 1 0 -8 0zM716 80 a4 4 0 1 0 8 0 a4 4 0 1 0 -8 0zM364 144 a4 4 0 1 0 8 0 a4 4 0 1 0 -8 0zM1100 80 a4 4 0 1 0 8 0 a4 4 0 1 0 -8 0zM300 80 a4 4 0 1 0 8 0 a4 4 0 1 0 -8 0zM908 80 a4 4 0 1 0 8 0 a4 4 0 1 0 -8 0z" fill="black"></path><path d="M268 432 a4 4 0 1 0 8 0 a4 4 0 1 0 -8 0zM140 432 a4 4 0 1 0 8 0 a4 4 0 1 0 -8 0zM268 464 a4 4 0 1 0 8 0 a4 4 0 1 0 -8 0z" fill="black"></path><path d="M12 144 a4 4 0 1 0 8 0 a4 4 0 1 0 -8 0z" fill="black"></path></mask></defs></svg>