<svg xmlns="http://www.w3.org/2000/svg" version="1.1" xmlns:xlink="http://www.w3.org/1999/xlink" xmlns:svgjs="http://svgjs.com/svgjs" width="1440" height="560" preserveAspectRatio="none" viewBox="0 0 1440 560"><g mask="url(&quot;#SvgjsMask3162&quot;)" fill="none"><g mask="url(&quot;#SvgjsMask3164&quot;)"><path d="M1296 304L1264 272L1232 272M1232 304L1200 304M624 304L592 336L560 336L528 336M976 272L944 304M1424 272L1392 240L1360 240L1328 240L1296 240M816 272L784 304M912 272L880 304L848 304L816 304L784 336L752 336M1488 272L1456 272L1424 272L1392 272L1360 304L1328 304L1296 304L1264 304L1232 304L1200 272L1168 272L1136 272L1104 272L1072 272L1040 272L1008 272L976 272L944 272L912 272L880 272L848 272L816 272L784 272L752 272L720 272L688 304L656 304L624 304L592 304" stroke="url(#SvgjsLinearGradient3163)" stroke-width="5.33"/><path d="M584 304 a8 8 0 1 0 16 0 a8 8 0 1 0 -16 0zM1224 272 a8 8 0 1 0 16 0 a8 8 0 1 0 -16 0zM1192 304 a8 8 0 1 0 16 0 a8 8 0 1 0 -16 0zM520 336 a8 8 0 1 0 16 0 a8 8 0 1 0 -16 0zM936 304 a8 8 0 1 0 16 0 a8 8 0 1 0 -16 0zM1288 240 a8 8 0 1 0 16 0 a8 8 0 1 0 -16 0zM776 304 a8 8 0 1 0 16 0 a8 8 0 1 0 -16 0zM744 336 a8 8 0 1 0 16 0 a8 8 0 1 0 -16 0z" fill="url(#SvgjsLinearGradient3163)"/><path d="M1456 304L1424 304L1392 304M1264 368L1232 336M1488 304L1456 304L1424 336L1392 336L1360 336L1328 336L1296 336L1264 368L1232 368L1200 368L1168 368" stroke="url(#SvgjsLinearGradient3163)" stroke-width="5.33"/><path d="M1160 368 a8 8 0 1 0 16 0 a8 8 0 1 0 -16 0zM1384 304 a8 8 0 1 0 16 0 a8 8 0 1 0 -16 0zM1224 336 a8 8 0 1 0 16 0 a8 8 0 1 0 -16 0z" fill="url(#SvgjsLinearGradient3163)"/><path d="M1040 240L1008 208M1104 240L1072 208M1200 240L1168 208L1136 208L1104 208M1232 240L1200 208M1296 208L1264 208L1232 208M1488 240L1456 240L1424 208L1392 208L1360 208L1328 208L1296 208L1264 240L1232 240L1200 240L1168 240L1136 240L1104 240L1072 240L1040 240L1008 240L976 240L944 240L912 240L880 240L848 240" stroke="url(#SvgjsLinearGradient3163)" stroke-width="5.33"/><path d="M840 240 a8 8 0 1 0 16 0 a8 8 0 1 0 -16 0zM1000 208 a8 8 0 1 0 16 0 a8 8 0 1 0 -16 0zM1064 208 a8 8 0 1 0 16 0 a8 8 0 1 0 -16 0zM1096 208 a8 8 0 1 0 16 0 a8 8 0 1 0 -16 0zM1192 208 a8 8 0 1 0 16 0 a8 8 0 1 0 -16 0zM1224 208 a8 8 0 1 0 16 0 a8 8 0 1 0 -16 0z" fill="url(#SvgjsLinearGradient3163)"/><path d="M976 400L944 368L912 336L880 336M1008 400L976 368M1072 400L1040 368L1008 368L976 336L944 336M1104 400L1072 368L1040 336L1008 336L976 304M1488 336L1456 336L1424 368L1392 368L1360 368L1328 368L1296 368L1264 400L1232 400L1200 400L1168 400L1136 400L1104 400L1072 400L1040 400L1008 400L976 400L944 400L912 368" stroke="url(#SvgjsLinearGradient3163)" stroke-width="5.33"/><path d="M904 368 a8 8 0 1 0 16 0 a8 8 0 1 0 -16 0zM872 336 a8 8 0 1 0 16 0 a8 8 0 1 0 -16 0zM968 368 a8 8 0 1 0 16 0 a8 8 0 1 0 -16 0zM936 336 a8 8 0 1 0 16 0 a8 8 0 1 0 -16 0zM968 304 a8 8 0 1 0 16 0 a8 8 0 1 0 -16 0z" fill="url(#SvgjsLinearGradient3163)"/><path d="M944 208L912 176L880 176M848 208L816 176M816 208L784 240L752 240L720 240L688 240M976 208L944 176M1040 176L1008 144M1008 176L976 176L944 144M1488 208L1456 208L1424 176L1392 176L1360 176L1328 176L1296 176L1264 176L1232 176L1200 176L1168 176L1136 176L1104 176L1072 176L1040 176L1008 176L976 208L944 208L912 208L880 208L848 208L816 208L784 208L752 208L720 208" stroke="url(#SvgjsLinearGradient3163)" stroke-width="5.33"/><path d="M712 208 a8 8 0 1 0 16 0 a8 8 0 1 0 -16 0zM872 176 a8 8 0 1 0 16 0 a8 8 0 1 0 -16 0zM808 176 a8 8 0 1 0 16 0 a8 8 0 1 0 -16 0zM680 240 a8 8 0 1 0 16 0 a8 8 0 1 0 -16 0zM936 176 a8 8 0 1 0 16 0 a8 8 0 1 0 -16 0zM1000 144 a8 8 0 1 0 16 0 a8 8 0 1 0 -16 0zM936 144 a8 8 0 1 0 16 0 a8 8 0 1 0 -16 0z" fill="url(#SvgjsLinearGradient3163)"/><path d="M1200 432L1168 464L1136 464L1104 464L1072 464M1360 400L1328 432L1296 432M1040 432L1008 464L976 464L944 464L912 464M1392 400L1360 432M1488 368L1456 368L1424 400L1392 400L1360 400L1328 400L1296 400L1264 432L1232 432L1200 432L1168 432L1136 432L1104 432L1072 432L1040 432L1008 432L976 432" stroke="url(#SvgjsLinearGradient3163)" stroke-width="5.33"/><path d="M968 432 a8 8 0 1 0 16 0 a8 8 0 1 0 -16 0zM1064 464 a8 8 0 1 0 16 0 a8 8 0 1 0 -16 0zM1288 432 a8 8 0 1 0 16 0 a8 8 0 1 0 -16 0zM904 464 a8 8 0 1 0 16 0 a8 8 0 1 0 -16 0zM1352 432 a8 8 0 1 0 16 0 a8 8 0 1 0 -16 0z" fill="url(#SvgjsLinearGradient3163)"/><path d="M592 176L560 176L528 176L496 144M752 176L720 144L688 144L656 144L624 144M496 240L464 208L432 208L400 208L368 208M912 144L880 112M656 176L624 208L592 208L560 240M1072 144L1040 144M944 112L912 112M816 144L784 144L752 144L720 112M1488 176L1456 176L1424 144L1392 144L1360 144L1328 144L1296 144L1264 144L1232 144L1200 144L1168 144L1136 144L1104 144L1072 144L1040 112L1008 112L976 112L944 112L912 144L880 144L848 144L816 144L784 176L752 176L720 176L688 176L656 176L624 176L592 176L560 208L528 208L496 240L464 240L432 240" stroke="url(#SvgjsLinearGradient3163)" stroke-width="5.33"/><path d="M424 240 a8 8 0 1 0 16 0 a8 8 0 1 0 -16 0zM488 144 a8 8 0 1 0 16 0 a8 8 0 1 0 -16 0zM616 144 a8 8 0 1 0 16 0 a8 8 0 1 0 -16 0zM360 208 a8 8 0 1 0 16 0 a8 8 0 1 0 -16 0zM872 112 a8 8 0 1 0 16 0 a8 8 0 1 0 -16 0zM552 240 a8 8 0 1 0 16 0 a8 8 0 1 0 -16 0zM1032 144 a8 8 0 1 0 16 0 a8 8 0 1 0 -16 0zM904 112 a8 8 0 1 0 16 0 a8 8 0 1 0 -16 0zM712 112 a8 8 0 1 0 16 0 a8 8 0 1 0 -16 0z" fill="url(#SvgjsLinearGradient3163)"/><path d="M1392 464L1360 496M1328 464L1296 496L1264 496M1424 432L1392 432M1488 400L1456 400L1424 432L1392 464L1360 464L1328 464L1296 464L1264 464" stroke="url(#SvgjsLinearGradient3163)" stroke-width="5.33"/><path d="M1256 464 a8 8 0 1 0 16 0 a8 8 0 1 0 -16 0zM1352 496 a8 8 0 1 0 16 0 a8 8 0 1 0 -16 0zM1256 496 a8 8 0 1 0 16 0 a8 8 0 1 0 -16 0zM1384 432 a8 8 0 1 0 16 0 a8 8 0 1 0 -16 0z" fill="url(#SvgjsLinearGradient3163)"/><path d="M1328 112L1296 80L1264 80L1232 80L1200 80M1360 112L1328 80M1104 112L1072 80M1392 112L1360 80M1424 112L1392 80M1488 144L1456 144L1424 112L1392 112L1360 112L1328 112L1296 112L1264 112L1232 112L1200 112L1168 112L1136 112L1104 112L1072 112L1040 80L1008 80L976 80L944 80L912 80L880 80L848 80L816 112" stroke="url(#SvgjsLinearGradient3163)" stroke-width="5.33"/><path d="M808 112 a8 8 0 1 0 16 0 a8 8 0 1 0 -16 0zM1192 80 a8 8 0 1 0 16 0 a8 8 0 1 0 -16 0zM1320 80 a8 8 0 1 0 16 0 a8 8 0 1 0 -16 0zM1064 80 a8 8 0 1 0 16 0 a8 8 0 1 0 -16 0zM1352 80 a8 8 0 1 0 16 0 a8 8 0 1 0 -16 0zM1384 80 a8 8 0 1 0 16 0 a8 8 0 1 0 -16 0z" fill="url(#SvgjsLinearGradient3163)"/></g></g><defs><mask id="SvgjsMask3162"><rect width="1440" height="560" fill="#ffffff"/></mask><linearGradient x1="1440" y1="280" x2="273.5999999999999" y2="280" gradientUnits="userSpaceOnUse" id="SvgjsLinearGradient3163"><stop stop-color="rgba(255, 0, 42, 1)" offset="0"/><stop stop-color="rgba(58, 124, 195, 1)" offset="0.49"/></linearGradient><mask id="SvgjsMask3164"><rect width="1440" height="560" fill="white"/><path d="M588 304 a4 4 0 1 0 8 0 a4 4 0 1 0 -8 0zM1228 272 a4 4 0 1 0 8 0 a4 4 0 1 0 -8 0zM1196 304 a4 4 0 1 0 8 0 a4 4 0 1 0 -8 0zM524 336 a4 4 0 1 0 8 0 a4 4 0 1 0 -8 0zM940 304 a4 4 0 1 0 8 0 a4 4 0 1 0 -8 0zM1292 240 a4 4 0 1 0 8 0 a4 4 0 1 0 -8 0zM780 304 a4 4 0 1 0 8 0 a4 4 0 1 0 -8 0zM748 336 a4 4 0 1 0 8 0 a4 4 0 1 0 -8 0z" fill="black"/><path d="M1164 368 a4 4 0 1 0 8 0 a4 4 0 1 0 -8 0zM1388 304 a4 4 0 1 0 8 0 a4 4 0 1 0 -8 0zM1228 336 a4 4 0 1 0 8 0 a4 4 0 1 0 -8 0z" fill="black"/><path d="M844 240 a4 4 0 1 0 8 0 a4 4 0 1 0 -8 0zM1004 208 a4 4 0 1 0 8 0 a4 4 0 1 0 -8 0zM1068 208 a4 4 0 1 0 8 0 a4 4 0 1 0 -8 0zM1100 208 a4 4 0 1 0 8 0 a4 4 0 1 0 -8 0zM1196 208 a4 4 0 1 0 8 0 a4 4 0 1 0 -8 0zM1228 208 a4 4 0 1 0 8 0 a4 4 0 1 0 -8 0z" fill="black"/><path d="M908 368 a4 4 0 1 0 8 0 a4 4 0 1 0 -8 0zM876 336 a4 4 0 1 0 8 0 a4 4 0 1 0 -8 0zM972 368 a4 4 0 1 0 8 0 a4 4 0 1 0 -8 0zM940 336 a4 4 0 1 0 8 0 a4 4 0 1 0 -8 0zM972 304 a4 4 0 1 0 8 0 a4 4 0 1 0 -8 0z" fill="black"/><path d="M716 208 a4 4 0 1 0 8 0 a4 4 0 1 0 -8 0zM876 176 a4 4 0 1 0 8 0 a4 4 0 1 0 -8 0zM812 176 a4 4 0 1 0 8 0 a4 4 0 1 0 -8 0zM684 240 a4 4 0 1 0 8 0 a4 4 0 1 0 -8 0zM940 176 a4 4 0 1 0 8 0 a4 4 0 1 0 -8 0zM1004 144 a4 4 0 1 0 8 0 a4 4 0 1 0 -8 0zM940 144 a4 4 0 1 0 8 0 a4 4 0 1 0 -8 0z" fill="black"/><path d="M972 432 a4 4 0 1 0 8 0 a4 4 0 1 0 -8 0zM1068 464 a4 4 0 1 0 8 0 a4 4 0 1 0 -8 0zM1292 432 a4 4 0 1 0 8 0 a4 4 0 1 0 -8 0zM908 464 a4 4 0 1 0 8 0 a4 4 0 1 0 -8 0zM1356 432 a4 4 0 1 0 8 0 a4 4 0 1 0 -8 0z" fill="black"/><path d="M428 240 a4 4 0 1 0 8 0 a4 4 0 1 0 -8 0zM492 144 a4 4 0 1 0 8 0 a4 4 0 1 0 -8 0zM620 144 a4 4 0 1 0 8 0 a4 4 0 1 0 -8 0zM364 208 a4 4 0 1 0 8 0 a4 4 0 1 0 -8 0zM876 112 a4 4 0 1 0 8 0 a4 4 0 1 0 -8 0zM556 240 a4 4 0 1 0 8 0 a4 4 0 1 0 -8 0zM1036 144 a4 4 0 1 0 8 0 a4 4 0 1 0 -8 0zM908 112 a4 4 0 1 0 8 0 a4 4 0 1 0 -8 0zM716 112 a4 4 0 1 0 8 0 a4 4 0 1 0 -8 0z" fill="black"/><path d="M1260 464 a4 4 0 1 0 8 0 a4 4 0 1 0 -8 0zM1356 496 a4 4 0 1 0 8 0 a4 4 0 1 0 -8 0zM1260 496 a4 4 0 1 0 8 0 a4 4 0 1 0 -8 0zM1388 432 a4 4 0 1 0 8 0 a4 4 0 1 0 -8 0z" fill="black"/><path d="M812 112 a4 4 0 1 0 8 0 a4 4 0 1 0 -8 0zM1196 80 a4 4 0 1 0 8 0 a4 4 0 1 0 -8 0zM1324 80 a4 4 0 1 0 8 0 a4 4 0 1 0 -8 0zM1068 80 a4 4 0 1 0 8 0 a4 4 0 1 0 -8 0zM1356 80 a4 4 0 1 0 8 0 a4 4 0 1 0 -8 0zM1388 80 a4 4 0 1 0 8 0 a4 4 0 1 0 -8 0z" fill="black"/></mask></defs></svg>